<?xml version="1.0" standalone="no"?>
<!DOCTYPE svg PUBLIC "-//W3C//DTD SVG 20010904//EN"
 "http://www.w3.org/TR/2001/REC-SVG-20010904/DTD/svg10.dtd">
<svg version="1.0" xmlns="http://www.w3.org/2000/svg"
 width="400.000000pt" height="400.000000pt" viewBox="0 0 400.000000 400.000000"
 preserveAspectRatio="xMidYMid meet">
<metadata>
Created by potrace 1.11, written by Peter Selinger 2001-2013
</metadata>
<g transform="translate(0.000000,400.000000) scale(0.100000,-0.100000)"
fill="#000000" stroke="none">
<path d="M1873 3589 c-264 -29 -544 -136 -756 -286 -110 -78 -287 -256 -370
-373 -255 -359 -345 -831 -241 -1261 122 -504 491 -915 971 -1083 197 -68 281
-81 528 -81 198 0 230 3 315 24 286 71 536 206 725 391 46 45 64 57 75 50 31
-20 74 -10 137 32 126 82 159 148 109 221 l-25 36 44 78 c208 369 242 849 89
1259 -70 189 -186 373 -329 523 -197 206 -415 339 -684 417 -168 49 -424 72
-588 53z m358 -185 c471 -81 889 -400 1083 -826 91 -200 130 -383 130 -613 0
-219 -41 -417 -126 -607 l-31 -69 -44 7 c-40 6 -46 4 -76 -28 -39 -42 -65
-115 -74 -210 -6 -67 -7 -70 -59 -120 -166 -160 -396 -284 -644 -348 -110 -28
-146 -33 -295 -37 -131 -4 -196 -1 -278 11 -608 96 -1080 541 -1209 1141 -25
117 -35 363 -19 476 88 624 542 1106 1148 1219 130 24 365 26 494 4z"/>
<path d="M1947 3313 c-4 -3 -7 -82 -7 -174 0 -92 -4 -170 -9 -173 -4 -3 -14
73 -21 169 l-13 175 -28 0 c-108 0 -306 -46 -404 -94 -77 -38 -255 -162 -255
-178 0 -5 24 -49 53 -96 30 -48 60 -98 67 -112 24 -45 -12 -7 -86 90 -37 50
-71 90 -75 90 -17 0 -240 -203 -303 -276 l-68 -79 63 -12 c170 -35 310 -105
422 -215 44 -43 82 -78 84 -78 3 0 65 43 140 95 223 156 303 185 523 185 148
0 226 -16 321 -66 175 -92 303 -268 384 -529 61 -194 160 -373 302 -546 91
-110 139 -134 197 -95 31 20 33 50 5 69 -49 35 -66 181 -49 437 10 149 10 212
0 303 -7 63 -15 119 -19 125 -5 8 -25 8 -75 1 -88 -14 -95 -6 -10 10 38 8 68
20 71 28 8 20 -33 171 -74 273 -59 145 -118 235 -234 352 -59 60 -110 108
-115 108 -5 0 -26 -33 -48 -73 -66 -124 -139 -248 -143 -244 -2 3 33 76 77
164 44 88 80 164 80 169 0 12 -137 93 -205 121 -79 33 -183 61 -268 72 -87 12
-270 15 -280 4z m1060 -999 c-3 -3 -12 -4 -19 -1 -8 3 -5 6 6 6 11 1 17 -2 13
-5z"/>
<path d="M1910 2546 c-81 -17 -122 -34 -197 -81 -195 -124 -343 -369 -437
-724 -19 -72 -32 -131 -29 -131 3 0 38 25 77 55 139 107 129 94 141 181 l11
79 99 6 c55 4 148 9 207 13 l106 6 -11 -33 c-17 -46 -90 -115 -153 -144 -30
-13 -89 -31 -130 -38 -41 -7 -77 -15 -79 -16 -2 -2 -21 -76 -44 -164 -32 -129
-81 -292 -148 -498 -3 -10 74 40 178 116 225 164 275 196 392 253 156 74 284
98 408 74 30 -6 88 -11 130 -12 100 -1 155 24 210 97 l40 53 -71 108 c-90 138
-112 185 -108 226 3 31 6 34 68 52 36 10 67 20 69 22 6 5 -32 109 -65 176
-122 244 -400 379 -664 324z"/>
</g>
</svg>
